# xmcd CD database file
#
# Track frame offsets:
#	150
#	50639
#	107095
#	138959
#	193879
#
# Disc length: 2889 seconds
#
# Revision: 0
# Processed by: cddbd v1.5.2PL0 Copyright (c) Steve Scherf et al.
# Submitted via: CDex 1.70beta2
#
DISCID=460b4705
DTITLE=Archie Shepp - Rufus
DYEAR=1963
DGENRE=Jazz
TTITLE0=Rufus (Swung, His Face At Last To The Wind, Then His Neck Snapped) 
TTITLE1=Nettus
TTITLE2=Hoppin'
TTITLE3=For Helved
TTITLE4=Funeral
EXTD=YEAR: 1963
EXTT0=
EXTT1=
EXTT2=
EXTT3=
EXTT4=
PLAYORDER=
